<svg xmlns="http://www.w3.org/2000/svg" xml:space="preserve" width="1500" height="88" data-id="lg_1r8r1Q0HKRkshNJQKM" data-version="1"><g data-padding="20"><g transform="translate(10 1.522)scale(.9654)"><path fill="#405189" d="M523.08.101a43.899 43.899 0 1 0 0 87.798 43.899 43.899 0 1 0 0-87.798"/><path fill="#fff" d="M597.96 19.78q3.96 0 7.01 1.43 3.04 1.44 5.5 4.17l-3.76 3.49q-2.05-2.12-4.17-3.07-2.12-.96-4.65-.96-3.83 0-6.33 2.25-2.49 2.26-2.49 5.89 0 2.66 1.6 4.24 1.61 1.57 5.99 3.35 5.33 2.12 8.03 4.85 2.71 2.74 2.71 7.73 0 4.04-2.02 7.53-2.02 3.48-5.88 5.64-3.87 2.15-9.2 2.15-8.48 0-13.89-6.29l3.9-3.49q2.12 2.33 4.52 3.49 2.39 1.16 5.6 1.16 4.79 0 7.7-2.7 2.9-2.7 2.9-7.21 0-3.01-1.67-4.76-1.68-1.74-6.12-3.59-5.61-2.32-8.04-4.89-2.43-2.56-2.43-6.94 0-3.35 1.85-6.46 1.85-3.12 5.33-5.06 3.49-1.95 8.01-1.95m36.25 11.01q3.62 0 5.74 2.36t2.12 6.39q0 1.51-.14 2.33l-3.62 25.78h-5.95L635.92 42q.13-1.5.13-1.98 0-4.17-3.35-4.17-4.85 0-10.19 9.85l-3.01 21.95h-5.95l7.11-50.47 6.02-.62-3.07 21.55q4.58-7.32 10.6-7.32m42.88 9.03q0 6.97-5.71 10.05t-15.97 4.31v.41q0 8.82 6.63 8.82 2.26 0 4.31-.78 2.05-.79 4.38-2.43l2.53 3.96q-5.68 4.31-11.83 4.31-5.82 0-9-3.66-3.18-3.65-3.18-10.15 0-5.68 1.82-11.15 1.81-5.47 5.78-9.06 3.96-3.59 9.91-3.59 4.93 0 7.63 2.56 2.7 2.57 2.7 6.4m-10.6-4.18q-4.65 0-7.29 4.04-2.63 4.03-3.45 9.92 7.87-.96 11.56-3.05 3.69-2.08 3.69-6.53 0-1.91-1.09-3.14-1.1-1.24-3.42-1.24m33.45-4.78q5.34 0 11.08 2.8l-3.69 25.85q-.14 1.37-.14 1.85 0 1.09.41 1.81t1.51 1.13l-1.92 4.17q-2.53-.34-3.93-1.74t-1.67-4.07q-2.12 2.8-4.45 4.31-2.33 1.5-5.27 1.5-4.85 0-7.59-3.52-2.73-3.52-2.73-9.47 0-5.75 1.91-11.42 1.92-5.68 6.09-9.44t10.39-3.76m0 4.78q-4.1 0-6.84 2.98-2.73 2.97-4.03 7.56-1.3 4.58-1.3 9.3 0 8.21 5.33 8.21 2.47 0 4.45-1.65 1.98-1.64 4.24-4.85l2.87-20.66q-2.19-.89-4.72-.89m36.59-4.77q1.5 0 3.21.48l-1.85 5.74q-1.5-.34-2.66-.34-3.01 0-5.31 2.97-2.29 2.98-4.13 8.66l-2.67 19.28h-5.95l5.06-36.04h5.13l-.48 6.98q1.85-3.84 4.24-5.78 2.4-1.95 5.41-1.95M779 42.76q4.03.89 6.39 3.07 2.36 2.19 2.36 6.43 0 6.78-4.48 11.08-4.48 4.31-14.39 4.31h-11.97l6.63-47.12h12.31q6.23 0 9.89 2.7 3.65 2.7 3.65 7.69 0 4.79-2.83 7.8-2.84 3.01-7.56 4.04m-3.08-17.31h-6.91l-2.12 15.12h6.23q4.65 0 7.31-2.4 2.67-2.39 2.67-7.04 0-5.68-7.18-5.68m-6.5 37.21q6.71 0 9.34-2.84t2.63-7.62q0-3.63-2.15-5.2-2.16-1.58-6.19-1.58h-6.84l-2.46 17.24Zm44.06-31.79q1.5 0 3.21.48l-1.84 5.74q-1.51-.34-2.67-.34-3.01 0-5.3 2.97-2.29 2.98-4.14 8.66l-2.67 19.28h-5.95l5.06-36.04h5.13l-.47 6.98q1.84-3.84 4.24-5.78 2.39-1.95 5.4-1.95m9.36.74h5.95l-5.06 36.04h-5.95Zm4.24-8.89q-1.71 0-2.74-1.03-1.02-1.02-1.02-2.67 0-1.98 1.3-3.24 1.3-1.27 3.14-1.27 1.71 0 2.74 1.03 1.03 1.02 1.03 2.66 0 1.99-1.3 3.25-1.3 1.27-3.15 1.27m20.73-6.29-6.22 44.45-.07.82q0 1.78 1.57 1.78 1.1 0 2.19-.41l1.03 4.24q-2.26 1.16-4.65 1.16-2.81 0-4.41-1.67-1.61-1.68-1.61-4.69 0-.54.14-1.78l6.08-43.22Zm17.91 0-6.22 44.45-.07.82q0 1.78 1.57 1.78 1.1 0 2.19-.41l1.03 4.24q-2.26 1.16-4.65 1.16-2.81 0-4.41-1.67-1.61-1.68-1.61-4.69 0-.54.14-1.78l6.08-43.22Zm10.2 15.18h5.95l-5.06 36.04h-5.95Zm4.24-8.89q-1.71 0-2.73-1.03-1.03-1.02-1.03-2.67 0-1.98 1.3-3.24 1.3-1.27 3.15-1.27 1.71 0 2.73 1.03 1.03 1.02 1.03 2.66 0 1.99-1.3 3.25-1.3 1.27-3.15 1.27m26.19 8.14q5.33 0 11.08 2.8l-3.69 25.85q-.14 1.37-.14 1.85 0 1.09.41 1.81t1.5 1.13l-1.91 4.17q-2.53-.34-3.93-1.74-1.41-1.4-1.68-4.07-2.12 2.8-4.44 4.31-2.33 1.5-5.27 1.5-4.86 0-7.59-3.52-2.74-3.52-2.74-9.47 0-5.75 1.92-11.42 1.91-5.68 6.08-9.44 4.18-3.76 10.4-3.76m0 4.78q-4.1 0-6.84 2.98-2.74 2.97-4.04 7.56-1.29 4.58-1.29 9.3 0 8.21 5.33 8.21 2.46 0 4.45-1.65 1.98-1.64 4.24-4.85l2.87-20.66q-2.19-.89-4.72-.89m38.03-4.85q3.55 0 5.67 2.32 2.12 2.33 2.12 6.36 0 1.24-.2 2.47l-3.63 25.71h-5.95L946.02 42q.14-1.36.14-1.91 0-4.24-3.42-4.24-4.79 0-10.13 9.85l-3.07 21.95h-5.95l5.06-36.04h5.13l-.55 6.84q2.46-3.7 5.13-5.68t6.02-1.98m32.21.07q2.87 0 5.16.92 2.3.92 4.28 2.97l-3.21 3.63q-1.44-1.37-2.91-1.98-1.47-.62-3.32-.62-3.97 0-6.43 2.98-2.46 2.97-3.55 7.35-1.1 4.38-1.1 8.82 0 8.41 6.29 8.41 1.99 0 3.63-.65t3.69-2.01l2.4 4.03q-4.86 3.76-10.26 3.76-5.68 0-8.83-3.66-3.14-3.65-3.14-10.22 0-5.61 1.84-11.05 1.85-5.43 5.75-9.06 3.9-3.62 9.71-3.62m39.81 8.96q0 6.97-5.71 10.05-5.72 3.08-15.97 4.31v.41q0 8.82 6.63 8.82 2.26 0 4.31-.78 2.05-.79 4.38-2.43l2.53 3.96q-5.68 4.31-11.84 4.31-5.81 0-8.99-3.66-3.18-3.65-3.18-10.15 0-5.68 1.81-11.15 1.82-5.47 5.78-9.06 3.97-3.59 9.92-3.59 4.92 0 7.63 2.56 2.7 2.57 2.7 6.4m-10.6-4.18q-4.66 0-7.29 4.04-2.63 4.03-3.45 9.92 7.86-.96 11.56-3.05 3.69-2.08 3.69-6.53 0-1.91-1.09-3.14-1.1-1.24-3.42-1.24"/><rect width="479.17" height="80.23" x="119.495" y="-396.115" fill="none" rx="0" ry="0" transform="translate(458.03 401.76)"/><path fill="#fff" d="M515.58 26.73q2.85 0 5.04 1.03 2.19 1.04 3.95 3l-2.7 2.51q-1.47-1.53-2.99-2.21-1.53-.69-3.35-.69-2.75 0-4.54 1.62t-1.79 4.22q0 1.92 1.15 3.05 1.16 1.13 4.3 2.41 3.83 1.52 5.77 3.49 1.94 1.96 1.94 5.55 0 2.9-1.45 5.4-1.45 2.51-4.22 4.05-2.78 1.55-6.61 1.55-6.09 0-9.97-4.52l2.8-2.5q1.52 1.67 3.24 2.5 1.72.84 4.03.84 3.44 0 5.53-1.94 2.08-1.94 2.08-5.19 0-2.16-1.2-3.41t-4.4-2.58q-4.02-1.67-5.77-3.51-1.74-1.85-1.74-4.99 0-2.41 1.32-4.64 1.33-2.24 3.84-3.64 2.5-1.4 5.74-1.4m27.32 16.5q2.9.64 4.59 2.21 1.7 1.57 1.7 4.62 0 4.86-3.22 7.96-3.22 3.09-10.34 3.09h-8.6l4.77-33.85h8.84q4.47 0 7.1 1.94t2.63 5.53q0 3.44-2.04 5.6t-5.43 2.9m-2.21-12.43h-4.96l-1.53 10.86h4.47q3.34 0 5.26-1.72t1.92-5.06q0-4.08-5.16-4.08m-4.67 26.73q4.82 0 6.71-2.04t1.89-5.48q0-2.6-1.55-3.73t-4.44-1.13h-4.92l-1.77 12.38Z"/><rect width="55.692" height="57.63" x="331.234" y="-384.815" fill="none" rx="0" ry="0" transform="translate(168.49 401.53)"/></g><path fill="transparent" stroke="transparent" d="M462.366 0h578v88h-578z"/></g></svg>